<svg width="21" height="26" viewBox="0 0 21 26" fill="none" xmlns="http://www.w3.org/2000/svg">
<path d="M20.0499 7.95455H0.551831C0.247082 7.95455 0 7.68742 0 7.35795V5.56818C0 4.25021 0.988238 3.18182 2.20733 3.18182H4.41465V0.596591C4.41465 0.267124 4.66173 0 4.96648 0H6.80592C7.11067 0 7.35775 0.267124 7.35775 0.596591V3.18182H13.244V0.596591C13.244 0.267124 13.491 0 13.7958 0H15.6352C15.94 0 16.1871 0.267124 16.1871 0.596591V3.18182H18.3944C19.6135 3.18182 20.6017 4.25021 20.6017 5.56818V7.35795C20.6017 7.68742 20.3546 7.95455 20.0499 7.95455ZM0.551831 9.54545H20.0499C20.3546 9.54545 20.6017 9.81258 20.6017 10.142V23.0682C20.6017 24.3862 19.6135 25.4545 18.3944 25.4545H2.20733C0.988238 25.4545 0 24.3862 0 23.0682V10.142C0 9.81258 0.247082 9.54545 0.551831 9.54545ZM15.8788 14.3155L14.5834 12.9037C14.3688 12.6698 14.0194 12.6683 13.803 12.9003L8.92679 18.1297L6.81236 15.8252C6.59774 15.5913 6.24829 15.5898 6.03193 15.8218L4.72607 17.2223C4.5097 17.4544 4.50828 17.8321 4.72294 18.066L8.52142 22.2058C8.73604 22.4397 9.08544 22.4413 9.30181 22.2092L15.8756 15.1592C16.092 14.9272 16.0934 14.5495 15.8788 14.3155Z" fill="white"/>
</svg>
