<svg width="16" height="16" viewBox="0 0 16 16" fill="none" xmlns="http://www.w3.org/2000/svg">
<path fill-rule="evenodd" clip-rule="evenodd" d="M13.637 13.637C13.1866 14.123 12.4389 14.121 11.9909 13.6311L8.01672 9.65688L4.00859 13.6316C3.56054 14.121 2.81326 14.1228 2.36302 13.637C1.87721 13.1867 1.879 12.4395 2.3684 11.9914L6.34312 7.98328L2.36895 4.00911C1.879 3.56112 1.87702 2.81343 2.36302 2.36302C2.81326 1.87721 3.56055 1.879 4.0086 2.3684L8.01672 6.34312L11.9909 2.36895C12.4389 1.879 13.1866 1.87703 13.637 2.36302C14.123 2.81343 14.121 3.56111 13.6311 4.0091L9.65688 7.98328L13.6316 11.9914C14.121 12.4395 14.1228 13.1867 13.637 13.637Z" fill="#1E1E22"/>
</svg>
