<svg width="21" height="20" viewBox="0 0 21 20" fill="none" xmlns="http://www.w3.org/2000/svg">
<path d="M0.735775 3.61932H19.8659C20.2723 3.61932 20.6017 3.25925 20.6017 2.81503V0.804293C20.6017 0.360072 20.2723 0 19.8659 0H0.735775C0.329397 0 0 0.360072 0 0.804293V2.81503C0 3.25925 0.329397 3.61932 0.735775 3.61932ZM0.735775 11.6622H19.8659C20.2723 11.6622 20.6017 11.3022 20.6017 10.858V8.84722C20.6017 8.403 20.2723 8.04293 19.8659 8.04293H0.735775C0.329397 8.04293 0 8.403 0 8.84722V10.858C0 11.3022 0.329397 11.6622 0.735775 11.6622ZM0.735775 19.7052H19.8659C20.2723 19.7052 20.6017 19.3451 20.6017 18.9009V16.8902C20.6017 16.4459 20.2723 16.0859 19.8659 16.0859H0.735775C0.329397 16.0859 0 16.4459 0 16.8902V18.9009C0 19.3451 0.329397 19.7052 0.735775 19.7052Z" fill="white"/>
</svg>
