<svg width="19" height="23" viewBox="0 0 19 23" fill="none" xmlns="http://www.w3.org/2000/svg">
<path d="M15.127 7.12716C15.127 5.50693 14.5317 3.95305 13.4719 2.80738C12.4122 1.6617 10.9749 1.01807 9.47625 1.01807C7.97758 1.01807 6.54029 1.6617 5.48056 2.80738C4.42084 3.95305 3.8255 5.50693 3.8255 7.12716C3.8255 14.2544 1.00012 16.2908 1.00012 16.2908H17.9524C17.9524 16.2908 15.127 14.2544 15.127 7.12716Z" stroke="white" stroke-width="2" stroke-linecap="round" stroke-linejoin="round"/>
<path d="M11.1056 20.3635C10.9401 20.6721 10.7024 20.9283 10.4165 21.1063C10.1305 21.2844 9.80633 21.3781 9.47635 21.3781C9.14636 21.3781 8.82217 21.2844 8.53622 21.1063C8.25028 20.9283 8.01262 20.6721 7.84705 20.3635" stroke="white" stroke-width="2" stroke-linecap="round" stroke-linejoin="round"/>
<ellipse cx="15.127" cy="3.05455" rx="2.82538" ry="3.05455" fill="#604AFF"/>
</svg>
