<svg width="16" height="17" viewBox="0 0 16 17" fill="none" xmlns="http://www.w3.org/2000/svg">
<path d="M14.8211 14.7385L11.9757 11.6714C12.8938 10.407 13.3919 8.84552 13.3901 7.23807C13.3901 5.80652 12.9974 4.40711 12.2617 3.21682C11.5261 2.02652 10.4805 1.0988 9.25711 0.550969C8.03375 0.00313612 6.68761 -0.140202 5.3889 0.139081C4.09019 0.418363 2.89725 1.10772 1.96093 2.11999C1.02462 3.13225 0.386975 4.42195 0.128646 5.826C-0.129683 7.23005 0.00290083 8.68538 0.509632 10.008C1.01636 11.3305 1.87448 12.461 2.97547 13.2563C4.07647 14.0516 5.37088 14.4761 6.69503 14.4761C8.18188 14.4781 9.62616 13.9396 10.7957 12.9471L13.6328 16.0233C13.7106 16.1081 13.8031 16.1754 13.9051 16.2213C14.0071 16.2673 14.1165 16.2909 14.2269 16.2909C14.3374 16.2909 14.4468 16.2673 14.5488 16.2213C14.6508 16.1754 14.7433 16.1081 14.8211 16.0233C14.8996 15.9392 14.9618 15.8391 15.0043 15.7289C15.0468 15.6186 15.0687 15.5003 15.0687 15.3809C15.0687 15.2615 15.0468 15.1432 15.0043 15.033C14.9618 14.9227 14.8996 14.8226 14.8211 14.7385V14.7385ZM1.67376 7.23807C1.67376 6.16441 1.96825 5.11485 2.52 4.22213C3.07174 3.32941 3.85596 2.63362 4.77348 2.22274C5.69099 1.81187 6.7006 1.70437 7.67463 1.91383C8.64867 2.12329 9.54337 2.64031 10.2456 3.39951C10.9478 4.1587 11.4261 5.12598 11.6198 6.17902C11.8136 7.23205 11.7141 8.32355 11.3341 9.31549C10.954 10.3074 10.3104 11.1553 9.4847 11.7518C8.65896 12.3482 7.68815 12.6666 6.69503 12.6666C5.36331 12.6666 4.08613 12.0947 3.14446 11.0766C2.20279 10.0586 1.67376 8.67782 1.67376 7.23807Z" fill="#604AFF"/>
</svg>
