<svg width="92" height="10" viewBox="0 0 92 10" fill="none" xmlns="http://www.w3.org/2000/svg">
<g clip-path="url(#clip0_2039_166)">
<path d="M79.1274 0C78.5523 0 78.0867 0.465768 78.0867 1.0412C78.0867 1.61664 78.5523 2.08241 79.1274 2.08241C79.702 2.08241 80.1676 1.61664 80.1676 1.0412C80.1676 0.465768 79.702 0 79.1274 0Z" fill="#122130"/>
<path d="M83.2674 2.52101C83.2674 2.52101 83.1502 1.76753 83.7782 1.76753H84.7591V0.196045H83.7782C81.384 0.196045 81.5413 2.52101 81.5413 2.52101H80.4031V4.13121H81.5413V8.52439H83.2687V4.13121H84.4069L84.8337 2.52101H83.2674Z" fill="#122130"/>
<path d="M80.0101 2.521H78.2439V8.52437H80.0101V2.521Z" fill="#122130"/>
<path d="M77.6154 0.196045H75.8491V8.52439H77.6154V0.196045Z" fill="#122130"/>
<path d="M61.17 1.61011H59.4826V5.46011C59.4826 6.52068 58.9335 7.0703 57.9125 7.0703C56.9702 7.0703 56.421 6.48068 56.421 5.46011V1.61011H54.6936V5.46011C54.6936 7.54253 55.8705 8.72049 57.9125 8.72049C59.9544 8.72049 61.17 7.54253 61.17 5.46011V1.61011Z" fill="#122130"/>
<path d="M51.8294 2.55333L51.587 1.61018H50.1033V8.52445H51.8307V4.87056C51.8307 2.90685 54.0286 3.41649 54.0286 3.41649V1.60889C52.4584 1.60889 51.8307 2.55204 51.8307 2.55204L51.8294 2.55333Z" fill="#122130"/>
<path d="M49.1995 3.18161L49.6107 1.61012H47.9039V0.196045H46.727C46.727 1.2566 45.8246 1.96365 44.9609 2.00364V3.18161H46.1379V6.40331C46.1379 7.77866 46.9616 8.52439 48.3744 8.52439H49.4341V6.95293H48.3744C48.0599 6.95293 47.9039 6.79554 47.9039 6.40331V3.18161H49.1995Z" fill="#122130"/>
<path d="M41.6235 3.10303C42.7617 3.10303 43.0763 4.00617 43.0763 4.00617H44.9996C44.9996 4.00617 44.3718 1.41284 41.6248 1.41284C39.3096 1.41284 38.1313 3.25914 38.1313 5.06673C38.1313 7.46266 39.8974 8.72062 41.6248 8.72062C44.4505 8.72062 44.9996 6.04988 44.9996 6.04988H43.0763C43.0763 6.04988 42.8017 7.03171 41.6235 7.03171C40.5638 7.03171 39.9361 6.28599 39.9361 5.06803C39.9361 3.85006 40.5638 3.10431 41.6235 3.10431V3.10303Z" fill="#122130"/>
<path d="M34.2525 1.41406C32.5251 1.41406 30.759 2.67074 30.759 5.06796C30.759 7.46521 32.5251 8.72183 34.2911 8.72183C36.8423 8.72183 37.6273 6.60075 37.6273 6.60075H35.5867C35.5867 6.60075 35.3122 7.11164 34.2911 7.11164C32.6823 7.11164 32.4851 5.61888 32.4851 5.61888H37.7446V5.06925C37.7446 2.67332 35.9786 1.41536 34.2512 1.41536L34.2525 1.41406ZM32.5251 4.35963C32.5251 4.35963 32.7649 2.90555 34.2525 2.90555C35.7401 2.90555 35.8613 4.35963 35.8613 4.35963H32.5251Z" fill="#122130"/>
<path d="M27.1175 1.41413C25.5087 1.41413 24.8409 2.39599 24.8409 2.39599L24.6217 1.61024H23.1135V9.95152H24.8796V7.77878C24.8796 7.77878 25.5461 8.72062 27.1161 8.72062C29.2354 8.72062 30.3737 6.87432 30.3737 5.06673C30.3737 2.5521 28.685 1.41284 27.1161 1.41284L27.1175 1.41413ZM26.6856 7.03171C25.5473 7.03171 24.8796 6.2847 24.8796 5.06803C24.8796 3.85135 25.5461 3.10431 26.6856 3.10431C27.8252 3.10431 28.5303 3.85135 28.5303 5.06803C28.5303 6.2847 27.8638 7.03171 26.6856 7.03171Z" fill="#122130"/>
<path d="M20.4452 4.32085C19.6988 4.16344 19.2282 4.04604 19.2282 3.5751C19.2282 3.22159 19.5028 3.02547 19.9733 3.02547C20.6797 3.02547 20.7584 3.5364 20.7584 3.5364H22.5644C22.5644 3.5364 22.4071 1.41528 19.9733 1.41528C18.4818 1.41528 17.3822 2.39714 17.3822 3.65381C17.3822 5.3427 18.6378 5.57881 19.6588 5.77493C20.4039 5.93233 20.8757 6.04974 20.8757 6.56068C20.8757 6.91418 20.6011 7.1503 20.0906 7.1503C19.2269 7.1503 19.1483 6.44329 19.1483 6.44329H17.3423C17.3423 6.44329 17.4596 8.72176 20.0894 8.72176C21.5808 8.72176 22.7191 7.73991 22.7191 6.48323C22.7191 4.75437 21.4635 4.51954 20.4425 4.32214L20.4452 4.32085Z" fill="#122130"/>
<path d="M68.2356 2.98567L67.2547 6.75699C67.1375 7.22788 66.5483 7.18922 66.5483 6.5996V3.53531C66.5483 1.06067 63.1732 0.588451 62.5441 2.98567L61.0913 8.52457H62.8574L64.1916 3.4179C64.3088 3.02567 64.898 3.10309 64.8591 3.53531V6.5996C64.8591 9.11419 68.2744 9.54642 68.9018 7.14922L69.8445 3.4179C69.9617 3.06438 70.5509 3.06438 70.5509 3.53531V8.52457H72.2381V3.53531C72.2381 1.06067 68.8235 0.588451 68.2343 2.98567H68.2356Z" fill="#122130"/>
<path d="M74.0044 8.67422C74.5789 8.67422 75.0445 8.20804 75.0445 7.63301C75.0445 7.05798 74.5789 6.5918 74.0044 6.5918C73.4299 6.5918 72.9636 7.05798 72.9636 7.63301C72.9636 8.20804 73.4299 8.67422 74.0044 8.67422Z" fill="#122130"/>
<path d="M91.6727 5.06796C91.6727 2.67202 89.9064 1.41406 88.179 1.41406C86.4516 1.41406 84.686 2.67074 84.686 5.06796C84.686 7.46521 86.4516 8.72183 88.2179 8.72183C90.7688 8.72183 91.5542 6.60075 91.5542 6.60075H89.5122C89.5122 6.60075 89.2376 7.11164 88.2179 7.11164C86.609 7.11164 86.4122 5.61888 86.4122 5.61888H91.6714V5.06925L91.6727 5.06796ZM86.4529 4.36092C86.4529 4.36092 86.693 2.90685 88.1803 2.90685C89.6682 2.90685 89.7892 4.36092 89.7892 4.36092H86.4529Z" fill="#122130"/>
<path d="M0.152113 8.5335L0 8.37738C0.0799236 5.87307 1.13827 4.91959 2.20435 4.70929C3.29234 4.49382 3.84536 5.07055 4.50152 4.95959C5.63978 4.76477 5.67974 2.95846 7.33497 2.40625C8.63822 1.97145 9.33044 3.09265 10.4494 2.75977C12.1342 2.25788 12.1342 0.528986 14.541 0.190949C14.6325 0.178046 14.715 0.250298 14.715 0.343195L14.6969 8.38382C14.6969 8.4677 14.6286 8.53605 14.5448 8.53605H0.152113V8.5335Z" fill="#604AFF"/>
</g>
<defs>
<clipPath id="clip0_2039_166">
<rect width="91.7197" height="10" fill="white"/>
</clipPath>
</defs>
</svg>
